<svg data-v-423bf9ae="" xmlns="http://www.w3.org/2000/svg" viewBox="0 0 585 90" class="iconLeft"><!----><!----><!----><g data-v-423bf9ae="" id="efed0d8d-d5f3-4758-85c1-50d60bd41a7f" fill="black" transform="matrix(5.509642182077017,0,0,5.509642182077017,122.38879256548088,16.542698595654354)"><path d="M7.27 10.61C8.08 10.61 8.95 10.01 9.69 9.23C9.77 9.13 9.81 9.02 9.81 8.92C9.81 8.78 9.73 8.65 9.58 8.58C9.25 8.88 8.60 9.28 8.15 9.28C7.27 9.28 6.83 7.52 6.58 5.67C7.87 4.87 8.75 3.43 8.75 2.16C8.75 0.84 7.80-0.28 5.33-0.28C2.60-0.28 0.45 0.64 0.45 2.30C0.45 3.00 0.87 3.63 1.58 3.63C1.78 3.63 1.97 3.58 2.18 3.49C2.02 3.29 1.90 3.04 1.90 2.67C1.90 1.62 2.70 0.39 5.05 0.39C6.47 0.39 7.03 1.25 7.03 2.27C7.03 3.74 5.88 5.53 4.44 5.64L5.42 1.02C5.25 0.91 5.01 0.84 4.76 0.84C4.27 0.84 3.74 1.06 3.60 1.71L1.62 10.43C1.78 10.54 2.04 10.61 2.37 10.61C2.88 10.61 3.43 10.37 3.57 9.72L4.30 6.30L4.49 6.30C4.66 6.30 4.83 6.29 4.98 6.27C5.21 8.34 5.80 10.61 7.27 10.61ZM14.53 4.72C14.53 4.09 14.21 3.37 12.94 3.37C10.63 3.37 9.42 6.29 9.42 8.11C9.42 9.83 10.49 10.61 11.80 10.61C13.16 10.61 14.78 9.77 15.75 8.36C15.90 8.11 15.76 7.81 15.40 7.88C14.80 8.68 13.51 9.39 12.50 9.39C11.86 9.39 11.34 9.11 11.20 8.36C13.90 6.86 14.53 5.91 14.53 4.72ZM13.03 4.47C13.27 4.47 13.44 4.69 13.44 5.01C13.44 5.92 12.52 6.90 11.16 7.76C11.20 6.78 11.65 4.47 13.03 4.47ZM18.45 4.31C18.89 4.31 19.11 3.95 19.04 3.50L18.02 3.50L18.41 1.65C18.24 1.54 18.00 1.47 17.75 1.47C17.25 1.47 16.72 1.71 16.58 2.35L16.32 3.50L16.04 3.50C15.61 3.50 15.39 3.86 15.46 4.31L16.16 4.31L15.26 8.54C14.94 10.08 15.50 10.61 16.35 10.61C17.29 10.61 18.35 9.97 19.01 9.23C19.10 9.13 19.14 9.02 19.14 8.92C19.14 8.78 19.05 8.65 18.90 8.58C18.55 8.93 17.95 9.28 17.43 9.28C17.07 9.28 16.84 9.03 17.01 8.25L17.84 4.31ZM23.14 10.61C24.08 10.61 25.02 9.97 25.68 9.23C25.76 9.13 25.80 9.02 25.80 8.92C25.80 8.78 25.72 8.65 25.56 8.58C25.21 8.93 24.61 9.28 24.09 9.28C23.81 9.28 23.63 9.11 23.72 8.71L24.40 5.49C24.75 3.84 23.79 3.43 23.09 3.43C22.37 3.43 21.76 3.95 21.22 4.70L21.95 1.27C22.06 0.74 21.78 0.50 21.28 0.50C20.52 0.50 19.52 1.18 19.52 1.50C19.52 1.61 19.53 1.75 19.73 1.93C19.95 1.67 20.22 1.75 20.13 2.13L18.35 10.47C18.52 10.58 18.69 10.61 18.94 10.61C19.45 10.61 19.98 10.37 20.12 9.73L21.00 5.75C21.38 5.31 21.80 5.01 22.30 5.01C22.76 5.01 22.74 5.39 22.64 5.84L22.05 8.62C21.70 10.26 22.44 10.61 23.14 10.61ZM26.64 1.62C26.56 2.17 26.96 2.60 27.51 2.60C28.06 2.60 28.52 2.17 28.60 1.62C28.66 1.08 28.25 0.64 27.71 0.64C27.16 0.64 26.70 1.08 26.64 1.62ZM25.37 8.95C25.10 10.22 25.91 10.61 26.61 10.61C27.55 10.61 28.49 9.97 29.15 9.23C29.23 9.13 29.27 9.02 29.27 8.92C29.27 8.78 29.19 8.65 29.04 8.58C28.69 8.93 28.08 9.28 27.57 9.28C27.20 9.28 26.98 9.03 27.15 8.25L28 4.20C28.11 3.67 27.83 3.43 27.33 3.43C26.74 3.43 26.24 3.72 25.76 4.10C25.48 4.33 25.58 4.76 25.76 4.87C25.89 4.76 25.97 4.70 26.04 4.70C26.17 4.70 26.22 4.83 26.18 5.05ZM29.23 4.87C29.36 4.76 29.44 4.70 29.51 4.70C29.64 4.70 29.71 4.83 29.65 5.05L28.50 10.43C28.67 10.54 28.91 10.61 29.16 10.61C29.67 10.61 30.20 10.37 30.34 9.73L31.19 5.74C31.50 5.36 32.06 5.01 32.44 5.01C32.75 5.01 32.94 5.25 32.82 5.84L32.23 8.62C31.88 10.26 32.62 10.61 33.32 10.61C34.26 10.61 35.20 9.97 35.85 9.23C35.94 9.13 35.98 9.02 35.98 8.92C35.98 8.78 35.90 8.65 35.74 8.58C35.39 8.93 34.79 9.28 34.27 9.28C33.99 9.28 33.81 9.11 33.89 8.71L34.58 5.49C34.90 4.02 34.37 3.43 33.63 3.43C32.82 3.43 31.92 3.99 31.33 4.83L31.47 4.20C31.60 3.67 31.30 3.43 30.80 3.43C30.21 3.43 29.71 3.72 29.23 4.10C28.95 4.33 29.05 4.76 29.23 4.87ZM38.78 1.27C38.88 0.74 38.61 0.50 38.11 0.50C37.52 0.50 37.02 0.80 36.54 1.18C36.26 1.40 36.36 1.83 36.54 1.95C36.67 1.83 36.75 1.78 36.82 1.78C36.95 1.78 37.02 1.90 36.96 2.13L35.21 10.43C35.38 10.54 35.62 10.61 35.87 10.61C36.34 10.61 36.85 10.37 36.97 9.73L37.48 7.36L37.80 7.28C38.01 8.37 38.37 10.61 39.77 10.61C40.36 10.61 41.33 9.84 41.83 9.23C41.92 9.13 41.96 9.02 41.96 8.92C41.96 8.78 41.87 8.65 41.72 8.58C41.36 8.92 41.05 9.17 40.77 9.17C39.80 9.17 39.40 7.67 39.20 6.86C40.08 6.44 40.96 5.60 40.95 4.48C40.95 3.72 40.70 3.43 40.17 3.43C39.68 3.43 39.26 3.70 39.07 4.07C39.21 4.28 39.27 4.55 39.27 4.94C39.27 5.78 38.81 6.30 37.91 6.57L37.63 6.64ZM47.66 4.20C47.77 3.67 47.49 3.43 46.98 3.43C46.40 3.43 45.89 3.72 45.42 4.10C45.14 4.33 45.23 4.76 45.42 4.87C45.54 4.76 45.63 4.70 45.70 4.70C45.82 4.70 45.88 4.83 45.84 5.05L44.69 10.43C44.86 10.54 45.09 10.61 45.35 10.61C45.85 10.61 46.38 10.37 46.52 9.73L46.69 8.88C47.40 5.64 48.06 5.01 48.52 5.01C48.82 5.01 48.96 5.17 48.96 5.36C48.96 5.53 48.90 5.71 48.80 5.80C48.93 5.84 49.08 5.85 49.21 5.85C49.94 5.85 50.33 5.17 50.33 4.54C50.33 3.96 49.98 3.43 49.31 3.43C48.66 3.43 48.06 3.82 47.50 4.96ZM54.99 4.72C54.99 4.09 54.67 3.37 53.40 3.37C51.09 3.37 49.88 6.29 49.88 8.11C49.88 9.83 50.95 10.61 52.26 10.61C53.62 10.61 55.24 9.77 56.21 8.36C56.36 8.11 56.22 7.81 55.86 7.88C55.26 8.68 53.97 9.39 52.96 9.39C52.32 9.39 51.80 9.11 51.66 8.36C54.36 6.86 54.99 5.91 54.99 4.72ZM53.49 4.47C53.73 4.47 53.90 4.69 53.90 5.01C53.90 5.92 52.98 6.90 51.62 7.76C51.66 6.78 52.11 4.47 53.49 4.47ZM56.74 10.61C58.80 10.61 59.61 9.60 59.61 8.25C59.61 6.47 57.32 6.79 57.32 5.31C57.32 4.55 57.75 4.17 58.13 4.17C58.46 4.17 58.76 4.41 58.76 4.93C58.76 5.21 58.66 5.52 58.52 5.68C58.70 5.81 58.90 5.87 59.08 5.88C59.60 5.91 60.06 5.52 60.06 4.73C60.06 3.82 59.49 3.37 58.30 3.37C56.67 3.37 55.90 4.41 55.90 5.53C55.90 7.63 58.21 7.50 58.21 8.57C58.21 9.25 57.64 9.69 57.11 9.69C56.66 9.69 56.22 9.41 56.22 8.76C56.22 8.43 56.34 8.09 56.52 7.88C56.36 7.74 56.18 7.69 55.96 7.69C55.27 7.69 54.87 8.19 54.77 8.76C54.61 9.70 55.24 10.61 56.74 10.61ZM60.76 7.92C60.52 8.97 60.52 10.61 62.08 10.61C62.87 10.61 63.56 9.94 64.12 9.03C64.05 10.26 64.74 10.61 65.42 10.61C66.18 10.61 67.19 9.97 67.84 9.23C67.93 9.13 67.97 9.02 67.97 8.92C67.97 8.78 67.89 8.65 67.73 8.58C67.38 8.93 66.78 9.28 66.26 9.28C65.90 9.28 65.67 9.03 65.84 8.25L66.82 3.61C66.65 3.50 66.42 3.43 66.16 3.43C65.66 3.43 65.13 3.67 64.99 4.31L64.15 8.27C63.77 8.72 63.35 9.00 62.86 9.00C62.44 9.00 62.26 8.75 62.38 8.18L63.24 4.20C63.36 3.67 63.07 3.43 62.57 3.43C61.98 3.43 61.47 3.72 61.00 4.10C60.72 4.33 60.82 4.76 61.00 4.87C61.12 4.76 61.21 4.70 61.28 4.70C61.40 4.70 61.47 4.83 61.42 5.05ZM70.17 4.20C70.29 3.67 70 3.43 69.50 3.43C68.91 3.43 68.40 3.72 67.93 4.10C67.65 4.33 67.75 4.76 67.93 4.87C68.05 4.76 68.14 4.70 68.21 4.70C68.33 4.70 68.40 4.83 68.35 5.05L67.20 10.43C67.37 10.54 67.61 10.61 67.86 10.61C68.36 10.61 68.89 10.37 69.03 9.73L69.89 5.74C70.27 5.29 70.67 5.01 71.18 5.01C71.64 5.01 71.61 5.39 71.51 5.84L70.53 10.43C70.70 10.54 70.94 10.61 71.19 10.61C71.69 10.61 72.23 10.37 72.37 9.73L73.23 5.66C73.60 5.26 73.98 5.01 74.45 5.01C74.91 5.01 74.90 5.39 74.79 5.84L74.20 8.62C73.85 10.26 74.59 10.61 75.29 10.61C76.23 10.61 77.17 9.97 77.83 9.23C77.91 9.13 77.95 9.02 77.95 8.92C77.95 8.78 77.87 8.65 77.71 8.58C77.36 8.93 76.76 9.28 76.24 9.28C75.96 9.28 75.78 9.11 75.87 8.71L76.55 5.49C76.92 3.85 76.01 3.43 75.38 3.43C74.56 3.43 73.86 4.03 73.28 4.87C73.32 3.88 72.67 3.43 72.10 3.43C71.30 3.43 70.60 4.00 70.03 4.83ZM82.67 4.72C82.67 4.09 82.35 3.37 81.07 3.37C78.76 3.37 77.56 6.29 77.56 8.11C77.56 9.83 78.62 10.61 79.94 10.61C81.30 10.61 82.92 9.77 83.89 8.36C84.04 8.11 83.90 7.81 83.54 7.88C82.94 8.68 81.65 9.39 80.64 9.39C80.00 9.39 79.48 9.11 79.34 8.36C82.04 6.86 82.67 5.91 82.67 4.72ZM81.17 4.47C81.41 4.47 81.58 4.69 81.58 5.01C81.58 5.92 80.65 6.90 79.30 7.76C79.34 6.78 79.79 4.47 81.17 4.47Z"></path></g><!----><g data-v-423bf9ae="" id="4b148384-6302-42c3-8bd4-3fbc3f24a3b8" transform="matrix(2.5938834468880767,0,0,2.5938834468880767,-76.90788312248833,-84.04346474822148)" stroke="none" fill="black"><path d="M32.121 67.349a2.339 2.339 0 01-2.336-2.337 2.339 2.339 0 012.336-2.336 2.339 2.339 0 012.336 2.336 2.339 2.339 0 01-2.336 2.337zM36.375 62.29a3.371 3.371 0 01-3.368-3.367 3.372 3.372 0 013.368-3.369 3.373 3.373 0 013.37 3.369 3.373 3.373 0 01-3.37 3.367zm0-4.609a1.24 1.24 0 10.002 2.478 1.24 1.24 0 00-.002-2.478zM53.971 61.258a7.358 7.358 0 01-5.508-2.465 5.08 5.08 0 01-2.681.756 5.127 5.127 0 01-5.086-4.542 7.243 7.243 0 01-5.046-6.897c0-2.59 1.384-4.96 3.587-6.249a7.417 7.417 0 01-.057-.898c0-4.145 3.373-7.517 7.518-7.517 1.627 0 3.173.513 4.457 1.464a6.94 6.94 0 015.135-2.258 6.971 6.971 0 016.625 4.796c4.034.052 7.299 3.349 7.299 7.394a7.411 7.411 0 01-3.459 6.255 5.123 5.123 0 01-6.263 6.243 7.41 7.41 0 01-6.521 3.918zm-5.318-5.03a1.064 1.064 0 01.894.486 5.25 5.25 0 004.424 2.416 5.273 5.273 0 004.956-3.501 1.061 1.061 0 011.496-.586c.43.225.895.34 1.382.34a2.994 2.994 0 002.99-2.991c0-.457-.105-.902-.312-1.322a1.064 1.064 0 01.513-1.439 5.279 5.279 0 003.09-4.791 5.274 5.274 0 00-5.269-5.267c-.202 0-.401.014-.597.037a1.072 1.072 0 01-1.166-.865 4.842 4.842 0 00-8.849-1.722 1.063 1.063 0 01-1.657.172 5.35 5.35 0 00-3.85-1.622 5.396 5.396 0 00-5.39 5.389c0 .401.05.82.15 1.245.116.5-.14 1.012-.61 1.217a5.115 5.115 0 00-3.07 4.685 5.112 5.112 0 004.161 5.02c.53.1.901.58.864 1.119-.007.099-.011.14-.011.183a2.994 2.994 0 002.99 2.991c.8 0 1.552-.313 2.117-.88.2-.202.472-.314.754-.314z"></path></g><!----></svg>